
<svg width="122" height="60" viewBox="0 0 122 60" fill="none" xmlns="http://www.w3.org/2000/svg">
<path d="M56.5366 0C54.8932 0 53.561 1.22104 53.561 2.72727V43.7823L22.9028 16.5153C21.7234 15.4664 19.8396 15.4924 18.6951 16.5733L14.5507 20.4878C13.4063 21.5688 13.4346 23.2954 14.614 24.3443L42.4384 49.0909H2.97561C1.33223 49.0909 0 50.312 0 51.8182V57.2727C0 58.779 1.33222 60 2.97561 60H58.3478H119.024C120.668 60 122 58.779 122 57.2727V51.8182C122 50.312 120.668 49.0909 119.024 49.0909H75.4855L105.047 21.1695C106.191 20.0885 106.163 18.3619 104.983 17.313L100.712 13.5145C99.5331 12.4655 97.6492 12.4915 96.5048 13.5725L65.4634 42.8919V2.72727C65.4634 1.22104 64.1312 0 62.4878 0H56.5366Z" fill="white"/>
</svg>